<?xml version="1.0" encoding="utf-8"?>
<!-- Generator: Adobe Illustrator 19.0.0, SVG Export Plug-In . SVG Version: 6.00 Build 0)  -->
<svg version="1.2" baseProfile="tiny" xmlns="http://www.w3.org/2000/svg" xmlns:xlink="http://www.w3.org/1999/xlink" x="0px"
	 y="0px" viewBox="0 0 70 50" xml:space="preserve">
<g id="Layer_2">
	<linearGradient id="XMLID_36_" gradientUnits="userSpaceOnUse" x1="42.0592" y1="51.6766" x2="42.0592" y2="41.3044">
		<stop  offset="0" style="stop-color:#69953E"/>
		<stop  offset="0.3773" style="stop-color:#6A953F;stop-opacity:0.9335"/>
		<stop  offset="0.5132" style="stop-color:#6C9541;stop-opacity:0.9096"/>
		<stop  offset="0.6101" style="stop-color:#6F9445;stop-opacity:0.8926"/>
		<stop  offset="0.6885" style="stop-color:#73934D;stop-opacity:0.8787"/>
		<stop  offset="0.7556" style="stop-color:#779358;stop-opacity:0.8669"/>
		<stop  offset="0.815" style="stop-color:#7B9264;stop-opacity:0.8565"/>
		<stop  offset="0.8674" style="stop-color:#809070;stop-opacity:0.8473"/>
		<stop  offset="0.9116" style="stop-color:#848F7B;stop-opacity:0.8395"/>
		<stop  offset="0.9266" style="stop-color:#889380;stop-opacity:0.6962"/>
		<stop  offset="0.9453" style="stop-color:#969E8E;stop-opacity:0.5196"/>
		<stop  offset="0.9657" style="stop-color:#ADB3A7;stop-opacity:0.3255"/>
		<stop  offset="0.9873" style="stop-color:#D1D3CD;stop-opacity:0.1203"/>
		<stop  offset="1" style="stop-color:#EFEFF0;stop-opacity:0"/>
	</linearGradient>
	<rect id="XMLID_34_" x="-17.2" y="41.3" fill="url(#XMLID_36_)" width="118.5" height="10.4"/>
</g>
<g id="Layer_1">
	<linearGradient id="XMLID_38_" gradientUnits="userSpaceOnUse" x1="35.3265" y1="47.2315" x2="35.3265" y2="9.3863">
		<stop  offset="0" style="stop-color:#4DB748"/>
		<stop  offset="1" style="stop-color:#87C540"/>
	</linearGradient>
	<path id="XMLID_7_" fill="url(#XMLID_38_)" d="M47.5,9.4C33.5,14,23.1,29.2,23.1,47.2h7.4C30.5,31.5,37.2,17.6,47.5,9.4z"/>
	<linearGradient id="XMLID_39_" gradientUnits="userSpaceOnUse" x1="-7.8046" y1="47.2315" x2="-7.8046" y2="5.8972">
		<stop  offset="0" style="stop-color:#4DB748"/>
		<stop  offset="1" style="stop-color:#87C540"/>
	</linearGradient>
	<path id="XMLID_27_" fill="url(#XMLID_39_)" d="M8.7,5.9c-1.6,0-3.1,0-4.7,0.3c-15.8,2.5-26.9,19.6-28.2,41h6.2
		C-15.8,27-5.7,10.9,8.7,5.9z"/>
	<linearGradient id="XMLID_40_" gradientUnits="userSpaceOnUse" x1="5.9111" y1="47.2315" x2="5.9111" y2="2.2872">
		<stop  offset="0" style="stop-color:#4DB748"/>
		<stop  offset="1" style="stop-color:#87C540"/>
	</linearGradient>
	<path id="XMLID_26_" fill="url(#XMLID_40_)" d="M19.3,2.3C4,6.8-7.5,25.2-7.5,47.2h6.9C-0.6,27.8,7.4,10.9,19.3,2.3z"/>
	<linearGradient id="XMLID_41_" gradientUnits="userSpaceOnUse" x1="62.0012" y1="47.2315" x2="62.0012" y2="5.8972">
		<stop  offset="0" style="stop-color:#4DB748"/>
		<stop  offset="1" style="stop-color:#87C540"/>
	</linearGradient>
	<path id="XMLID_8_" fill="url(#XMLID_41_)" d="M78.5,5.9c-1.6,0-3.1,0-4.7,0.3c-15.8,2.5-26.9,19.6-28.2,41h6.2
		C54,27,64.1,10.9,78.5,5.9z"/>
	<linearGradient id="XMLID_42_" gradientUnits="userSpaceOnUse" x1="75.717" y1="47.2315" x2="75.717" y2="2.2872">
		<stop  offset="0" style="stop-color:#4DB748"/>
		<stop  offset="1" style="stop-color:#87C540"/>
	</linearGradient>
	<path id="XMLID_6_" fill="url(#XMLID_42_)" d="M89.1,2.3C73.8,6.8,62.3,25.2,62.3,47.2h6.9C69.2,27.8,77.2,10.9,89.1,2.3z"/>
	<linearGradient id="XMLID_43_" gradientUnits="userSpaceOnUse" x1="12.914" y1="47.2315" x2="12.914" y2="2.2872">
		<stop  offset="0" style="stop-color:#4DB748"/>
		<stop  offset="1" style="stop-color:#87C540"/>
	</linearGradient>
	<path id="XMLID_4_" fill="url(#XMLID_43_)" d="M-0.5,2.3c15.3,4.5,26.8,22.9,26.8,44.9h-6.9C19.5,27.8,11.4,10.9-0.5,2.3z"/>
	<linearGradient id="XMLID_44_" gradientUnits="userSpaceOnUse" x1="39.3688" y1="47.2315" x2="39.3688" y2="15.0966">
		<stop  offset="0" style="stop-color:#4DB748"/>
		<stop  offset="1" style="stop-color:#87C540"/>
	</linearGradient>
	<path id="XMLID_2_" fill="url(#XMLID_44_)" d="M31.1,15.1c9.6,3.9,16.6,16.8,16.6,32.1h-5C42.7,33.9,38.1,22.1,31.1,15.1z"/>
	<linearGradient id="XMLID_45_" gradientUnits="userSpaceOnUse" x1="37.9095" y1="47.2315" x2="37.9095" y2="22.3036">
		<stop  offset="0" style="stop-color:#4DB748"/>
		<stop  offset="1" style="stop-color:#87C540"/>
	</linearGradient>
	<path id="XMLID_3_" fill="url(#XMLID_45_)" d="M47.4,22.3c-10.9,3-18.9,13-18.9,24.9h5.7C34.2,36.9,39.4,27.7,47.4,22.3z"/>
	<linearGradient id="XMLID_46_" gradientUnits="userSpaceOnUse" x1="36.3452" y1="47.2315" x2="36.3452" y2="24.7594">
		<stop  offset="0" style="stop-color:#4DB748"/>
		<stop  offset="1" style="stop-color:#87C540"/>
	</linearGradient>
	<path id="XMLID_5_" fill="url(#XMLID_46_)" d="M27.2,24.8c10.6,2.7,18.4,11.8,18.4,22.5H40C40,37.9,34.9,29.6,27.2,24.8z"/>
	<linearGradient id="XMLID_47_" gradientUnits="userSpaceOnUse" x1="53.108" y1="47.2315" x2="53.108" y2="24.7593">
		<stop  offset="0" style="stop-color:#4DB748"/>
		<stop  offset="1" style="stop-color:#87C540"/>
	</linearGradient>
	<path id="XMLID_9_" fill="url(#XMLID_47_)" d="M43.9,24.8c10.6,2.7,18.4,11.8,18.4,22.5h-5.5C56.8,37.9,51.7,29.6,43.9,24.8z"/>
	<linearGradient id="XMLID_48_" gradientUnits="userSpaceOnUse" x1="57.0892" y1="47.2315" x2="57.0892" y2="10.2281">
		<stop  offset="0" style="stop-color:#4DB748"/>
		<stop  offset="1" style="stop-color:#87C540"/>
	</linearGradient>
	<path id="XMLID_10_" fill="url(#XMLID_48_)" d="M48.8,10.2c9.6,4.5,16.6,19.4,16.6,37h-5C60.4,31.8,55.8,18.3,48.8,10.2z"/>
	<linearGradient id="XMLID_49_" gradientUnits="userSpaceOnUse" x1="18.6268" y1="47.2315" x2="18.6268" y2="4.4726">
		<stop  offset="0" style="stop-color:#4DB748"/>
		<stop  offset="1" style="stop-color:#87C540"/>
	</linearGradient>
	<path id="XMLID_13_" fill="url(#XMLID_49_)" d="M31.2,4.5C16.7,9.7,6.1,26.8,6.1,47.2h7.6C13.6,29.4,20.6,13.8,31.2,4.5z"/>
	<linearGradient id="XMLID_50_" gradientUnits="userSpaceOnUse" x1="-0.5048" y1="47.2315" x2="-0.5048" y2="24.7593">
		<stop  offset="0" style="stop-color:#4DB748"/>
		<stop  offset="1" style="stop-color:#87C540"/>
	</linearGradient>
	<path id="XMLID_14_" fill="url(#XMLID_50_)" d="M-9.7,24.8C0.9,27.5,8.7,36.5,8.7,47.2H3.1C3.1,37.9-2,29.6-9.7,24.8z"/>
	<linearGradient id="XMLID_51_" gradientUnits="userSpaceOnUse" x1="2.6615" y1="47.2315" x2="2.6615" y2="10.2281">
		<stop  offset="0" style="stop-color:#4DB748"/>
		<stop  offset="1" style="stop-color:#87C540"/>
	</linearGradient>
	<path id="XMLID_15_" fill="url(#XMLID_51_)" d="M-5.6,10.2C3.9,14.7,11,29.6,11,47.2H6C6,31.8,1.4,18.3-5.6,10.2z"/>
	<linearGradient id="XMLID_52_" gradientUnits="userSpaceOnUse" x1="82.8056" y1="47.2315" x2="82.8056" y2="2.2872">
		<stop  offset="0" style="stop-color:#4DB748"/>
		<stop  offset="1" style="stop-color:#87C540"/>
	</linearGradient>
	<path id="XMLID_37_" fill="url(#XMLID_52_)" d="M69.4,2.3c15.3,4.5,26.8,22.9,26.8,44.9h-6.9C89.4,27.8,81.3,10.9,69.4,2.3z"/>
	<linearGradient id="XMLID_53_" gradientUnits="userSpaceOnUse" x1="69.3869" y1="47.2315" x2="69.3869" y2="24.7593">
		<stop  offset="0" style="stop-color:#4DB748"/>
		<stop  offset="1" style="stop-color:#87C540"/>
	</linearGradient>
	<path id="XMLID_30_" fill="url(#XMLID_53_)" d="M60.2,24.8c10.6,2.7,18.4,11.8,18.4,22.5H73C73,37.9,67.9,29.6,60.2,24.8z"/>
	<linearGradient id="XMLID_54_" gradientUnits="userSpaceOnUse" x1="72.5531" y1="47.2314" x2="72.5531" y2="10.2281">
		<stop  offset="0" style="stop-color:#4DB748"/>
		<stop  offset="1" style="stop-color:#87C540"/>
	</linearGradient>
	<path id="XMLID_29_" fill="url(#XMLID_54_)" d="M64.3,10.2c9.6,4.5,16.6,19.4,16.6,37h-5C75.8,31.8,71.2,18.3,64.3,10.2z"/>
	<linearGradient id="XMLID_55_" gradientUnits="userSpaceOnUse" x1="1.1932" y1="50.7214" x2="1.1932" y2="43.2432">
		<stop  offset="0" style="stop-color:#8D9092"/>
		<stop  offset="1" style="stop-color:#EFEFF0"/>
	</linearGradient>
	<ellipse id="XMLID_1_" fill="url(#XMLID_55_)" cx="1.2" cy="47" rx="4.9" ry="3.7"/>
	<linearGradient id="XMLID_56_" gradientUnits="userSpaceOnUse" x1="9.3385" y1="49.3365" x2="9.3385" y2="41.3044">
		<stop  offset="0" style="stop-color:#8D9092"/>
		<stop  offset="1" style="stop-color:#EFEFF0"/>
	</linearGradient>
	<ellipse id="XMLID_11_" fill="url(#XMLID_56_)" cx="9.3" cy="45.3" rx="6" ry="4"/>
	<linearGradient id="XMLID_57_" gradientUnits="userSpaceOnUse" x1="7.0521" y1="52.5217" x2="7.0521" y2="47.2315">
		<stop  offset="0" style="stop-color:#8D9092"/>
		<stop  offset="1" style="stop-color:#EFEFF0"/>
	</linearGradient>
	<ellipse id="XMLID_12_" fill="url(#XMLID_57_)" cx="7.1" cy="49.9" rx="3.9" ry="2.6"/>
	<linearGradient id="XMLID_58_" gradientUnits="userSpaceOnUse" x1="14.7497" y1="52.5217" x2="14.7497" y2="45.3205">
		<stop  offset="0" style="stop-color:#8D9092"/>
		<stop  offset="1" style="stop-color:#EFEFF0"/>
	</linearGradient>
	<ellipse id="XMLID_16_" fill="url(#XMLID_58_)" cx="14.7" cy="48.9" rx="4.6" ry="3.6"/>
	<linearGradient id="XMLID_59_" gradientUnits="userSpaceOnUse" x1="21.0482" y1="52.0092" x2="21.0482" y2="45.3619">
		<stop  offset="0" style="stop-color:#8D9092"/>
		<stop  offset="1" style="stop-color:#EFEFF0"/>
	</linearGradient>
	<ellipse id="XMLID_17_" fill="url(#XMLID_59_)" cx="21" cy="48.7" rx="4.3" ry="3.3"/>
	<linearGradient id="XMLID_60_" gradientUnits="userSpaceOnUse" x1="27.23" y1="48.6855" x2="27.23" y2="42.4537">
		<stop  offset="0" style="stop-color:#8D9092"/>
		<stop  offset="1" style="stop-color:#EFEFF0"/>
	</linearGradient>
	<ellipse id="XMLID_18_" fill="url(#XMLID_60_)" cx="27.2" cy="45.6" rx="4.4" ry="3.1"/>
	<linearGradient id="XMLID_61_" gradientUnits="userSpaceOnUse" x1="26.8241" y1="51.3168" x2="26.8241" y2="47.2729">
		<stop  offset="0" style="stop-color:#8D9092"/>
		<stop  offset="1" style="stop-color:#EFEFF0"/>
	</linearGradient>
	<ellipse id="XMLID_19_" fill="url(#XMLID_61_)" cx="26.8" cy="49.3" rx="3.2" ry="2"/>
	<linearGradient id="XMLID_62_" gradientUnits="userSpaceOnUse" x1="33.0964" y1="50.7628" x2="33.0964" y2="45.5696">
		<stop  offset="0" style="stop-color:#8D9092"/>
		<stop  offset="1" style="stop-color:#EFEFF0"/>
	</linearGradient>
	<ellipse id="XMLID_20_" fill="url(#XMLID_62_)" cx="33.1" cy="48.2" rx="4.4" ry="2.6"/>
	<linearGradient id="XMLID_63_" gradientUnits="userSpaceOnUse" x1="37.5996" y1="51.0813" x2="37.5996" y2="43.6031">
		<stop  offset="0" style="stop-color:#8D9092"/>
		<stop  offset="1" style="stop-color:#EFEFF0"/>
	</linearGradient>
	<ellipse id="XMLID_32_" fill="url(#XMLID_63_)" cx="37.6" cy="47.3" rx="4.9" ry="3.7"/>
	<linearGradient id="XMLID_64_" gradientUnits="userSpaceOnUse" x1="45.745" y1="49.6964" x2="45.745" y2="41.6643">
		<stop  offset="0" style="stop-color:#8D9092"/>
		<stop  offset="1" style="stop-color:#EFEFF0"/>
	</linearGradient>
	<ellipse id="XMLID_31_" fill="url(#XMLID_64_)" cx="45.7" cy="45.7" rx="6" ry="4"/>
	<linearGradient id="XMLID_65_" gradientUnits="userSpaceOnUse" x1="43.4585" y1="52.8816" x2="43.4585" y2="47.5914">
		<stop  offset="0" style="stop-color:#8D9092"/>
		<stop  offset="1" style="stop-color:#EFEFF0"/>
	</linearGradient>
	<ellipse id="XMLID_28_" fill="url(#XMLID_65_)" cx="43.5" cy="50.2" rx="3.9" ry="2.6"/>
	<linearGradient id="XMLID_66_" gradientUnits="userSpaceOnUse" x1="51.1561" y1="52.8816" x2="51.1561" y2="45.6803">
		<stop  offset="0" style="stop-color:#8D9092"/>
		<stop  offset="1" style="stop-color:#EFEFF0"/>
	</linearGradient>
	<ellipse id="XMLID_25_" fill="url(#XMLID_66_)" cx="51.2" cy="49.3" rx="4.6" ry="3.6"/>
	<linearGradient id="XMLID_67_" gradientUnits="userSpaceOnUse" x1="57.4546" y1="52.3691" x2="57.4546" y2="45.7218">
		<stop  offset="0" style="stop-color:#8D9092"/>
		<stop  offset="1" style="stop-color:#EFEFF0"/>
	</linearGradient>
	<ellipse id="XMLID_24_" fill="url(#XMLID_67_)" cx="57.5" cy="49" rx="4.3" ry="3.3"/>
	<linearGradient id="XMLID_68_" gradientUnits="userSpaceOnUse" x1="63.6364" y1="49.0454" x2="63.6364" y2="42.8136">
		<stop  offset="0" style="stop-color:#8D9092"/>
		<stop  offset="1" style="stop-color:#EFEFF0"/>
	</linearGradient>
	<ellipse id="XMLID_23_" fill="url(#XMLID_68_)" cx="63.6" cy="45.9" rx="4.4" ry="3.1"/>
	<linearGradient id="XMLID_69_" gradientUnits="userSpaceOnUse" x1="63.2305" y1="51.6766" x2="63.2305" y2="47.6328">
		<stop  offset="0" style="stop-color:#8D9092"/>
		<stop  offset="1" style="stop-color:#EFEFF0"/>
	</linearGradient>
	<ellipse id="XMLID_22_" fill="url(#XMLID_69_)" cx="63.2" cy="49.7" rx="3.2" ry="2"/>
	<linearGradient id="XMLID_70_" gradientUnits="userSpaceOnUse" x1="69.5028" y1="52.293" x2="69.5028" y2="47.0998">
		<stop  offset="0" style="stop-color:#8D9092"/>
		<stop  offset="1" style="stop-color:#EFEFF0"/>
	</linearGradient>
	<ellipse id="XMLID_21_" fill="url(#XMLID_70_)" cx="69.5" cy="49.7" rx="4.4" ry="2.6"/>
	<linearGradient id="XMLID_71_" gradientUnits="userSpaceOnUse" x1="71.3476" y1="50.7214" x2="71.3476" y2="43.2432">
		<stop  offset="0" style="stop-color:#8D9092"/>
		<stop  offset="1" style="stop-color:#EFEFF0"/>
	</linearGradient>
	<ellipse id="XMLID_33_" fill="url(#XMLID_71_)" cx="71.3" cy="47" rx="4.9" ry="3.7"/>
</g>
</svg>
